<?xml version="1.0" encoding="utf-8"?>
<!-- Generator: Adobe Illustrator 23.1.0, SVG Export Plug-In . SVG Version: 6.00 Build 0)  -->
<svg version="1.1" xmlns="http://www.w3.org/2000/svg" xmlns:xlink="http://www.w3.org/1999/xlink" x="0px" y="0px"
	 viewBox="0 0 337.22 360.1" style="enable-background:new 0 0 337.22 360.1;" xml:space="preserve">
<g id="Layer_1">
</g>
<g id="Layer_2">
</g>
<g id="Layer_3">
</g>
<g id="Layer_5">
</g>
<g id="Layer_4">
	<g>
		<rect x="0.23" y="306.92" style="fill:#DDDAD7;" width="336.99" height="53.18"/>
		<rect x="6.25" y="301.19" style="fill:#7F0D1B;" width="324.97" height="52.9"/>
		<g>
			<path style="fill:#FFFFFF;" d="M59.3,318.67c1.54,0.6,3.18,1.15,4.92,1.64c-0.64,4.3-1.53,6.89-2.68,7.79
				c-1.15,0.9-2.58,1.35-4.32,1.35h-6.88c-3.78,0-5.66-1.76-5.66-5.27v-0.72c-1.73,0.73-3.52,1.43-5.35,2.09
				c-0.86-1.75-1.71-3.28-2.54-4.61v9.18h-5.2v-8.96c-1.28,1.17-2.6,2.27-3.98,3.3c-0.91-2.08-1.67-3.63-2.27-4.65
				c4.14-2.92,7.7-6.84,10.66-11.76l4.61,2.27c-1.2,1.88-2.47,3.65-3.83,5.31v5.18c2.76-0.9,5.39-1.87,7.89-2.91v-8.98h5.2v6.6
				c3.36-1.69,6.46-3.55,9.3-5.59l3.24,3.91c-3.72,2.64-7.9,5.08-12.54,7.3v1.64c0,1.48,0.89,2.23,2.66,2.23h3.24
				c1.25,0,2.1-0.37,2.55-1.12S59.11,321.39,59.3,318.67z M25.86,333.2H42v-3.67h5.7v3.67h15.86v4.92H47.7v8.91H42v-8.91H25.86
				V333.2z"/>
			<path style="fill:#FFFFFF;" d="M89.8,308.55h5.7c0.01,2.83-0.11,5.56-0.37,8.2c1.95,12.16,7.61,20.16,16.97,23.98
				c-2.06,2.42-3.55,4.31-4.49,5.66c-7.01-3.55-11.95-9.61-14.84-18.16c-2.75,7.64-7.93,13.83-15.55,18.55
				c-0.81-1.43-2.12-3.29-3.95-5.59c5.85-3.33,10.07-7.37,12.69-12.11C88.57,324.36,89.85,317.51,89.8,308.55z"/>
			<path style="fill:#FFFFFF;" d="M128.39,312.03v23.32h-5v-23.32H128.39z M131.67,308.47h5.08v16.76c0,3.93-0.21,7.02-0.64,9.27
				s-1.28,4.4-2.55,6.47s-2.98,4.09-5.13,6.05c-1.82-1.93-3.27-3.29-4.34-4.1c2.58-1.86,4.49-3.94,5.74-6.22s1.86-6.14,1.84-11.55
				V308.47z M138.9,324.96h13.87v-9.06h-14.57v-5h19.88v35.82h-5.31v-2.19h-16.13v-5h16.13v-9.57H138.9V324.96z"/>
			<path style="fill:#FFFFFF;" d="M169.59,339.76h5.7v-19.34h5.78v19.34h6.76v-23.59h-16.68v-5.35h35.43v5.35h-12.85v8.55h11.48
				v5.31h-11.48v9.73h14.14v5.35h-38.28V339.76z"/>
			<path style="fill:#FFFFFF;" d="M235.87,326.09v4.02l-4.73,3.36V335c2.32-0.18,4.58-0.38,6.8-0.59c-0.1,1.9-0.17,3.37-0.2,4.41
				c-2.32,0.21-4.52,0.42-6.6,0.63v2.66c-0.05,2.58-1.2,4-3.44,4.26c-1.41,0.13-3.45,0.2-6.13,0.2c-0.26-1.48-0.56-2.97-0.9-4.45
				c1.67,0.08,2.98,0.12,3.95,0.12c1.2-0.03,1.8-0.6,1.8-1.72v-0.59c-2.92,0.29-5.61,0.57-8.09,0.86l-0.66-4.73
				c0.73-0.03,1.45-0.07,2.15-0.12c-0.78-1.41-1.52-2.66-2.23-3.75c1.12-0.75,2.08-1.48,2.89-2.19h-2.54v-3.91h6.52
				c0.65-0.68,1.34-1.43,2.07-2.27h-8.71v-4.06h6.56v-2.89h-5.12v-4.06h5.12v-4.14h4.77v4.14h4.14v2.89
				c0.73-0.99,1.52-2.15,2.38-3.48l3.75,2.38c-1.28,1.93-2.51,3.65-3.71,5.16h1.45v3.87c2.24-4.74,3.91-9.73,5-14.96l5.2,0.51
				c-0.5,1.98-1,3.85-1.52,5.63h10.04v4.77h-1.6c-0.52,6.69-2.04,12.34-4.57,16.95c1.8,2.11,3.96,3.83,6.48,5.16
				c-0.94,1.07-2.07,2.8-3.4,5.2c-2.37-1.64-4.44-3.55-6.21-5.74c-2.14,2.55-4.71,4.65-7.73,6.29c-1.17-1.67-2.49-3.23-3.95-4.69
				c3.49-1.61,6.35-3.76,8.59-6.45c-1.25-2.42-2.23-5.1-2.93-8.05c-0.44,0.86-0.9,1.65-1.37,2.38c-0.86-1.56-1.91-3.15-3.16-4.77
				c0.34-0.65,0.68-1.33,1.02-2.03h-4.65c-0.65,0.78-1.28,1.54-1.88,2.27H235.87z M220.79,335.85l5.63-0.43v-2.97l3.55-2.46h-2.89
				C225.03,332.21,222.93,334.16,220.79,335.85z M232.51,316.87h-3.36v2.89h1.02C230.95,318.88,231.73,317.91,232.51,316.87z
				 M243.61,321.4c0.55,3.85,1.52,7.24,2.93,10.16c1.67-3.41,2.66-7.41,2.97-11.99h-5.23C244.06,320.19,243.84,320.8,243.61,321.4z"
				/>
			<path style="fill:#FFFFFF;" d="M289.03,308.43l-1.09,1.33c3.36,4.92,8.78,9.11,16.25,12.58c-1.38,1.69-2.55,3.23-3.52,4.61
				c-1.95-1.04-3.78-2.14-5.47-3.28v2.66h-20.94v-2.89c-1.69,1.15-3.52,2.29-5.47,3.44c-0.76-1.07-1.93-2.6-3.52-4.61
				c8.54-4.5,14.22-9.11,17.03-13.83H289.03z M266.84,329.6h35.86v4.92h-9.73c2.47,3,5.14,6.37,8.01,10.12l-4.77,2.89
				c-0.57-0.83-1.17-1.71-1.8-2.62c-4.95,0.18-11.15,0.5-18.59,0.94c-1.12,0.08-2.49,0.27-4.1,0.59l-2.34-4.73
				c2.4-1.72,4.77-4.11,7.11-7.19h-9.65V329.6z M284.73,314.06c-1.85,2.42-4.45,4.9-7.81,7.42h15.31
				C289.29,319.19,286.79,316.71,284.73,314.06z M288.17,336.56l3.36-2.03h-8.24c-1.35,1.72-3.07,3.68-5.16,5.9
				c3.02,0,7.25-0.12,12.7-0.35C289.99,338.95,289.11,337.78,288.17,336.56z"/>
		</g>
		<path style="fill:#DDDAD7;" d="M168.97,233.59c6.23-5.21,15.08-6.37,27.28-2.15c15.2,5.26,44.77,4.38,44.77,4.38l32.87,35.84
			c-37.3,0-66.35-8.46-79.87-9.13c-13.53-0.67-24.87,8.36-24.87,8.36s-12.41-9.03-25.93-8.36c-13.53,0.67-42.58,9.13-79.88,9.13
			l32.87-35.84c0,0,29.56,0.89,44.77-4.38C153.17,227.22,162.74,228.38,168.97,233.59z"/>
		<path style="fill:#A3978C;" d="M273.89,274.85c-50.04-0.71-65.69-8.44-78.97-8.84c-16.74-0.5-26.31,9.9-26.31,9.9
			s-9.56-10.4-26.31-9.9c-13.28,0.4-28.93,8.13-78.97,8.84c0,0,4.39,10.6-7.27,19.09c0,0,19.45,0.48,40.29-1.41
			c13.84-1.26,24.53-4.62,44.18-6.01c18-1.27,22.23,6.36,22.23,6.36h0.07c0.74,1.94,3.05,3.36,5.78,3.36s5.04-1.42,5.78-3.36h0.07
			c0,0,4.23-7.63,22.23-6.36c19.65,1.39,30.34,4.75,44.18,6.01c20.84,1.89,40.29,1.41,40.29,1.41
			C269.5,285.45,273.89,274.85,273.89,274.85z"/>
		<path style="fill:#A3978C;" d="M257.4,90.78l-5.21,3.16l-0.06,1.43l-4.37,1.03l-1.5-1.55l0.06-1.39l-4.64-3.39l-5.5-0.24
			l-6.1-10.64l-2.94-3.04l-5.43-0.24l-7.65,2.16l-1.5,2.2l1.51,0.07l1.17,2.71l-4.09,7.21l0.56,1.76l-1.97,0.53l-1.96,1.71
			l-3.49-0.16l-2.49,7.33l1.29,1.34l3.83,0.17l2.79-2.19l5.75,4.26l-1.74,1.51l-1.97-0.55l-6.74,3.39l-0.52,2.13l-2.24,1.95
			l-2.48-0.11l-2.69,2.35l-2.8-0.13L192.8,114l-2.93,4.03l2.32,2.4l-3.37,2.06l-3.63,3.63l-7.44-0.02l-8.26,4.04l-1.45-1.49
			l-7.7-1.78l-1.06-1.13L142.52,123l-1.57-3.05l-0.72-3.3l-6.29-4.08l-7.88-2.2l-0.14-1.85l1.53-1.32l0.14-3.44l-1.04-1.09l0.1-2.33
			l-2.39-2.48l-1.86,0.33l-0.67-2.08l-0.77-0.8l-0.88-3.06l-2.91-0.13l-0.1,2.05l-4.68,1.12l-0.17,4l-2.43,1.23l-4.85-2.59
			l-4.27,6.17l0.48,1.46l-8.36-1l0.6,8.03l-2.53,1.12l-0.43,2.54l-7.67,2.54l-3.74-0.99l-2.13,1.85l-3.01-0.13l-0.98-1.02
			l-4.82,0.46l-1.97,5.55l2.62,1.75l-0.19,4.2l-2.8-0.12l2.42,2.51l1.18,3.68l6.15,4.7l-0.13,3.18l1.93,2.61l-1.43,1.24l1.35,5.26
			l-3.88-0.18l0.35,4.22l7.17,7.45l1.44,0.07l4.78,3.95l1.07,2.72l1.65-0.64l-0.08,1.83l8.06,5.38l1.01-0.87l2.48,2.58l5.21-0.89
			l-0.11,2.86l4.87-2.87l4.45,1.54l2.22,2.3l2.98-0.33l3.07-2.68l5.14-2.5l2.96,1.27l2.85-1.11l1.59,2.83l-0.82,1.6l3.62,1.19
			l1.29-1.12l3.82,3.96l-0.93,7.3l-4.82,4.19l-0.16,3.47l4.61,0.21l1.13,3.85l1.72,0.08l-1.03,3.85l2.56,0.73l0.64,2.29l2.27,0.1
			l1.42-0.44l0.86,2.19l1.85,0.08l-0.07-5.53l2.36,0.1l1.47-1.48l1.45,1.5l7.38-1.1l2.4-2.11l1.46,1.51l4.13,0.19l-0.84,1.96
			l2.33,3.28l11.2,0.5l-0.13,2.66l1.31,2.32l1.5,0.07l-0.95-2.71l1.34-1.17l11.53-4.62l0.08-2.04l2.02,0.81l0.71,0.75l1.2,0.05
			l0.96-2.11l3.34-0.25l3.08-1.41l4.42-3.85l1.39-3.16l2.52-0.82l2.53-3.68l0.78-2.74l0.12-2.76l3.07-3.55l0.54-2.35l1.33-1.17
			l0.98-0.47l0.65-4.69l-1.75,0.74l0.95-2l-1.6-1.66l-1.56,1.37l-1.41-1.45l4.01-2.79l-1.55-1.61l-3.25-1.89l3.01,0.03l1.8,0.8
			l0.07-1.33l-2.31-1.43l-2.74-2.85l-2.61-5.39l-4.63-0.2l3.24-4.99l0.1-2.14l1.51,0.06l0.08-1.63l2.51-0.71l1.61-1.41l1.13,0.05
			l0.06-1.28l-1.15-1.18l-5.58-0.25l-1.57,1.37l-0.51,1.51l-2.37-0.11l-1.04-2.92l-2.6-0.11l-2.52-2.62l1.56-2.56l2.49,0.12
			l4.83-4.4l1.18-2.3l1.57-1.36l3.09,0.95l-0.63,2.02l-1.28,2.1l-0.05,1.44l0.97,1.01l-0.08,1.8l2.66-2.33l0.64-2.76l5.25-1.72
			l4.99-4.34l1.86-4.28l5.17,0.23l-1.65-1.71l2.63-1.01l2.42-2.1l0.08-2.1l2.91,1.26l1.35-3.53l-2.84-6.58l1.73-2.49l4.08,0.18
			l0.47-10.45l1.75-0.64L257.4,90.78L257.4,90.78z M231.72,194.95l-3.06,5.83l2.52,6.37l1.51,0.06l0.08-1.63l1.73-2.39l1-7.96
			l-1.66-1.71L231.72,194.95L231.72,194.95z M189.34,219.22l-3.23,0.27l-1.74,2.48l-1.08-0.05l-0.11,2.47l1,2.09l3.77,0.17
			l2.54-1.42l1.54-4.19l1.24-1.07l-1.4-1.46L189.34,219.22L189.34,219.22z"/>
		<g>
			<path style="fill:#4F4C4A;" d="M44.35,231.56c-0.16-0.27-0.2-0.57-0.11-0.89l0.94-3.23c1.99,0.27,3.82,0.99,5.48,2.13
				c1.66,1.15,3.16,2.83,4.49,5.04c1.19,1.98,1.93,3.96,2.2,5.94c0.28,1.98,0.15,3.9-0.38,5.74c-0.53,1.84-1.45,3.56-2.76,5.17
				c-1.31,1.6-2.95,3-4.93,4.19c-2,1.21-4.03,1.98-6.1,2.32s-4.06,0.27-5.99-0.21c-1.93-0.48-3.73-1.35-5.41-2.63
				c-1.68-1.27-3.13-2.92-4.35-4.95c-1.19-1.98-1.92-3.89-2.18-5.75c-0.26-1.86-0.19-3.63,0.22-5.32l3.3,0.27
				c0.21,0.01,0.41,0.06,0.61,0.14c0.2,0.09,0.39,0.27,0.55,0.54c0.17,0.28,0.23,0.64,0.19,1.07c-0.04,0.43-0.06,0.95-0.04,1.56
				s0.12,1.33,0.32,2.15c0.2,0.83,0.62,1.77,1.26,2.84c0.75,1.25,1.67,2.27,2.73,3.06c1.07,0.79,2.24,1.31,3.5,1.58
				s2.61,0.26,4.02-0.01c1.42-0.28,2.85-0.85,4.3-1.72c1.5-0.9,2.7-1.92,3.61-3.04c0.91-1.13,1.55-2.29,1.91-3.5
				c0.36-1.21,0.46-2.43,0.29-3.66s-0.59-2.42-1.27-3.55c-0.41-0.67-0.81-1.26-1.21-1.77c-0.4-0.5-0.82-0.93-1.26-1.3
				c-0.44-0.36-0.9-0.68-1.4-0.94c-0.5-0.26-1.06-0.48-1.67-0.66c-0.18-0.06-0.35-0.13-0.5-0.23
				C44.57,231.85,44.45,231.72,44.35,231.56z"/>
			<path style="fill:#4F4C4A;" d="M39.58,197.66l1.84,5.53l-12.9,4.28l4.6,13.83l12.9-4.28l1.84,5.53l-29.5,9.8l-1.84-5.53
				l12.69-4.22l-4.59-13.83l-12.69,4.22l-1.84-5.53L39.58,197.66z"/>
			<path style="fill:#4F4C4A;" d="M38.16,186.1l0.89,5.74l-30.72,4.77l-0.89-5.74L38.16,186.1z"/>
			<path style="fill:#4F4C4A;" d="M5.84,176.21c0.02-0.17,0.07-0.32,0.14-0.46c0.07-0.14,0.16-0.27,0.29-0.39
				c0.12-0.13,0.29-0.27,0.49-0.42l21.05-15.98c-0.5,0.05-0.99,0.08-1.47,0.09s-0.93,0.02-1.34,0.01l-18.9-0.31l0.08-5.09l31.08,0.5
				l-0.05,2.99c-0.01,0.46-0.09,0.84-0.23,1.14c-0.15,0.3-0.41,0.59-0.79,0.87l-20.96,15.92c0.46-0.04,0.91-0.06,1.37-0.08
				c0.45-0.01,0.86-0.02,1.24-0.01l19.09,0.31l-0.08,5.09l-31.08-0.5l0.05-3.03C5.8,176.59,5.82,176.38,5.84,176.21z"/>
			<path style="fill:#4F4C4A;" d="M11.91,123.61l4.5,0.98l-2.94,13.46l8.42,1.84l2.31-10.61l4.35,0.95l-2.31,10.61l8.59,1.87
				l2.94-13.46l4.52,0.98l-4.18,19.16l-30.38-6.63L11.91,123.61z"/>
			<path style="fill:#4F4C4A;" d="M26.32,101.65c0.23,0.27,0.37,0.52,0.41,0.76c0.04,0.24,0.01,0.49-0.1,0.76
				c-0.11,0.27-0.33,0.52-0.67,0.77c-0.34,0.25-0.73,0.55-1.17,0.89c-0.44,0.35-0.88,0.78-1.33,1.3c-0.45,0.52-0.85,1.19-1.18,2.01
				c-0.3,0.74-0.48,1.43-0.52,2.05c-0.05,0.62,0.01,1.19,0.18,1.7s0.43,0.95,0.8,1.31c0.37,0.37,0.82,0.66,1.35,0.88
				c0.68,0.28,1.32,0.32,1.92,0.12c0.61-0.19,1.19-0.54,1.77-1.03c0.57-0.49,1.15-1.09,1.73-1.78c0.58-0.69,1.18-1.4,1.8-2.11
				c0.62-0.71,1.29-1.39,1.99-2.03c0.7-0.64,1.47-1.16,2.3-1.54c0.83-0.39,1.74-0.6,2.73-0.64c0.99-0.04,2.08,0.19,3.28,0.68
				c1.3,0.53,2.43,1.25,3.38,2.16c0.95,0.91,1.68,1.96,2.17,3.16c0.49,1.2,0.73,2.52,0.71,3.95c-0.02,1.43-0.35,2.94-1,4.54
				c-0.37,0.92-0.83,1.78-1.37,2.6s-1.15,1.56-1.81,2.25c-0.66,0.68-1.37,1.28-2.13,1.8c-0.75,0.52-1.53,0.94-2.33,1.27l-1.93-2.6
				c-0.13-0.22-0.21-0.46-0.25-0.72c-0.04-0.26-0.01-0.51,0.09-0.76c0.14-0.33,0.42-0.63,0.85-0.91s0.92-0.6,1.46-0.99
				c0.55-0.39,1.1-0.88,1.66-1.48c0.56-0.6,1.05-1.4,1.45-2.39c0.62-1.53,0.74-2.85,0.36-3.99c-0.38-1.13-1.25-1.97-2.6-2.53
				c-0.76-0.31-1.45-0.37-2.08-0.19c-0.63,0.18-1.24,0.52-1.82,1.01c-0.58,0.49-1.15,1.09-1.7,1.79c-0.55,0.7-1.13,1.41-1.73,2.13
				c-0.6,0.71-1.25,1.39-1.95,2.04c-0.7,0.65-1.47,1.16-2.32,1.54s-1.8,0.58-2.85,0.59c-1.05,0.01-2.23-0.25-3.55-0.79
				c-1.05-0.43-1.99-1.05-2.81-1.88c-0.82-0.82-1.46-1.79-1.9-2.91c-0.44-1.12-0.66-2.35-0.64-3.71c0.01-1.36,0.32-2.79,0.94-4.29
				c0.69-1.7,1.6-3.16,2.71-4.37c1.12-1.22,2.36-2.13,3.72-2.75L26.32,101.65z"/>
			<path style="fill:#4F4C4A;" d="M36.22,73.51l3.9,2.44L32.8,87.63l7.31,4.58l5.76-9.2l3.77,2.36l-5.76,9.2l7.45,4.67l7.32-11.68
				l3.92,2.45l-10.41,16.62l-26.35-16.5L36.22,73.51z"/>
			<path style="fill:#4F4C4A;" d="M65.75,68.11l8.39,8.78l-4.18,4L48.48,58.41l6.85-6.55c1.53-1.47,3-2.56,4.39-3.29
				c1.4-0.73,2.72-1.14,3.96-1.24c1.24-0.1,2.41,0.09,3.49,0.57s2.08,1.2,2.99,2.15c0.72,0.76,1.29,1.58,1.72,2.46
				c0.42,0.89,0.68,1.81,0.79,2.76c0.11,0.95,0.05,1.93-0.17,2.93c-0.22,1-0.61,2.01-1.16,3.01c0.82-0.2,1.68-0.21,2.6-0.02
				l13.56,2.92l-3.76,3.59c-0.36,0.35-0.74,0.57-1.13,0.67c-0.39,0.1-0.81,0.1-1.24-0.01l-11.6-2.68c-0.43-0.1-0.81-0.11-1.13-0.02
				s-0.69,0.33-1.1,0.73L65.75,68.11z M62.88,65.11l2.61-2.5c0.79-0.75,1.38-1.51,1.78-2.26c0.4-0.76,0.62-1.49,0.67-2.2
				c0.05-0.71-0.06-1.39-0.33-2.05c-0.27-0.65-0.68-1.27-1.22-1.84c-1.09-1.14-2.3-1.66-3.64-1.55c-1.34,0.11-2.78,0.9-4.32,2.37
				l-2.67,2.56L62.88,65.11z"/>
			<path style="fill:#4F4C4A;" d="M89.22,26.22l2.5,3.87l-11.58,7.48l4.68,7.24l9.12-5.89l2.41,3.74l-9.12,5.89l4.77,7.39
				l11.58-7.48l2.51,3.88L89.62,62.97L72.75,36.86L89.22,26.22z"/>
			<path style="fill:#4F4C4A;" d="M115.53,14.43l1.78,4.24l-12.71,5.33l3.56,8.48l10.72-4.5l1.79,4.26l-10.73,4.5l4.9,11.68
				l-5.37,2.26L97.45,22.02L115.53,14.43z"/>
			<path style="fill:#4F4C4A;" d="M156.82,21.1c0.42,2.24,0.44,4.38,0.05,6.43c-0.39,2.05-1.13,3.9-2.22,5.55
				c-1.09,1.65-2.51,3.04-4.27,4.18c-1.76,1.14-3.79,1.93-6.1,2.36c-2.31,0.43-4.49,0.44-6.55,0.02s-3.89-1.21-5.52-2.34
				c-1.62-1.14-2.98-2.59-4.09-4.36c-1.11-1.77-1.87-3.77-2.29-6.01s-0.44-4.38-0.05-6.43c0.39-2.05,1.13-3.9,2.23-5.55
				c1.1-1.65,2.53-3.04,4.29-4.19s3.8-1.93,6.11-2.36c2.31-0.43,4.49-0.43,6.54,0c2.05,0.43,3.88,1.21,5.49,2.35
				c1.61,1.13,2.97,2.58,4.08,4.35C155.63,16.86,156.4,18.86,156.82,21.1z M150.99,22.2c-0.31-1.68-0.82-3.14-1.51-4.39
				c-0.69-1.25-1.54-2.26-2.55-3.03c-1.01-0.77-2.15-1.3-3.43-1.56c-1.28-0.27-2.67-0.26-4.16,0.02s-2.79,0.78-3.9,1.5
				c-1.1,0.72-1.99,1.62-2.65,2.71c-0.66,1.09-1.1,2.34-1.3,3.75c-0.2,1.42-0.14,2.96,0.17,4.64c0.31,1.68,0.82,3.14,1.52,4.38
				c0.7,1.25,1.56,2.25,2.57,3.02c1.01,0.77,2.16,1.28,3.45,1.55c1.29,0.27,2.68,0.26,4.17-0.02s2.79-0.78,3.89-1.5
				c1.1-0.72,1.98-1.61,2.63-2.69c0.66-1.08,1.08-2.33,1.28-3.74S151.3,23.87,150.99,22.2z"/>
			<path style="fill:#4F4C4A;" d="M169.17,24.79l-0.46,12.14l-5.78-0.22l1.17-31.07l9.48,0.36c2.12,0.08,3.93,0.37,5.42,0.86
				c1.49,0.49,2.71,1.15,3.65,1.98c0.94,0.82,1.61,1.79,2.02,2.91c0.41,1.11,0.59,2.33,0.54,3.65c-0.04,1.05-0.23,2.03-0.57,2.95
				s-0.82,1.75-1.43,2.48c-0.61,0.74-1.35,1.38-2.22,1.92c-0.87,0.54-1.86,0.96-2.96,1.27c0.71,0.44,1.32,1.06,1.82,1.85l7.34,11.77
				l-5.2-0.2c-0.5-0.02-0.92-0.13-1.27-0.35c-0.34-0.21-0.63-0.51-0.86-0.89L173.71,26c-0.23-0.38-0.49-0.66-0.78-0.83
				c-0.29-0.17-0.72-0.26-1.29-0.29L169.17,24.79z M169.33,20.65l3.61,0.14c1.09,0.04,2.04-0.06,2.86-0.3
				c0.82-0.24,1.5-0.59,2.04-1.05c0.54-0.46,0.95-1.01,1.23-1.66c0.28-0.65,0.44-1.37,0.47-2.16c0.06-1.58-0.41-2.81-1.42-3.69
				c-1.01-0.88-2.58-1.37-4.71-1.45l-3.7-0.14L169.33,20.65z"/>
			<path style="fill:#4F4C4A;" d="M208.1,31.08c0.06,0.53,0.12,1.07,0.17,1.61c0.34-0.44,0.68-0.87,1.02-1.29
				c0.35-0.42,0.7-0.82,1.06-1.19L224,16.23c0.17-0.17,0.33-0.31,0.49-0.4c0.15-0.09,0.31-0.14,0.47-0.15
				c0.16-0.01,0.33,0,0.52,0.04c0.18,0.04,0.4,0.09,0.65,0.17l4.19,1.22l-8.68,29.85l-4.89-1.42l5.61-19.28
				c0.1-0.36,0.23-0.75,0.37-1.17c0.14-0.42,0.3-0.84,0.47-1.27l-13.95,14.3c-0.32,0.33-0.67,0.55-1.07,0.66s-0.81,0.11-1.25-0.02
				l-0.76-0.22c-0.44-0.13-0.79-0.35-1.06-0.66c-0.27-0.31-0.45-0.69-0.54-1.13l-4.2-19.65c-0.08,0.47-0.17,0.93-0.27,1.36
				s-0.21,0.85-0.32,1.22l-5.61,19.28l-4.89-1.42l8.69-29.85l4.19,1.22c0.25,0.07,0.46,0.14,0.63,0.21
				c0.17,0.07,0.33,0.15,0.46,0.24c0.13,0.1,0.24,0.23,0.33,0.39c0.09,0.16,0.16,0.36,0.21,0.6l4.1,19.17
				C207.95,30.02,208.04,30.54,208.1,31.08z"/>
			<path style="fill:#4F4C4A;" d="M257.96,32.25l-2.27,4l-11.98-6.81l-4.26,7.5l9.44,5.36l-2.2,3.87l-9.44-5.36l-4.34,7.65
				l11.98,6.81l-2.28,4.02l-17.05-9.69l15.36-27.03L257.96,32.25z"/>
			<path style="fill:#4F4C4A;" d="M276.67,67.7c-1.5,1.71-3.17,3.03-5,3.97c-1.83,0.93-3.71,1.46-5.66,1.59
				c-1.94,0.13-3.89-0.16-5.85-0.87c-1.96-0.71-3.82-1.83-5.58-3.39l-8.92-7.83l20.51-23.36l8.92,7.83
				c1.77,1.55,3.12,3.25,4.07,5.11c0.95,1.85,1.49,3.75,1.62,5.68c0.13,1.94-0.15,3.87-0.83,5.81
				C279.27,64.16,278.18,65.98,276.67,67.7z M272.23,63.79c1.13-1.28,1.96-2.58,2.51-3.9c0.55-1.32,0.82-2.61,0.8-3.88
				c-0.02-1.26-0.31-2.48-0.89-3.66s-1.44-2.27-2.58-3.27l-4.54-3.99l-14.44,16.45l4.54,3.99c1.14,1,2.33,1.71,3.57,2.14
				s2.49,0.56,3.74,0.41s2.5-0.58,3.74-1.29C269.92,66.07,271.1,65.08,272.23,63.79z"/>
			<path style="fill:#4F4C4A;" d="M290.92,101.92c0.17,0.26,0.22,0.56,0.13,0.88l-0.84,3.25c-2-0.21-3.84-0.87-5.54-1.97
				s-3.24-2.73-4.64-4.9c-1.25-1.94-2.04-3.9-2.38-5.87c-0.34-1.98-0.27-3.89,0.21-5.75c0.47-1.86,1.34-3.61,2.6-5.25
				c1.26-1.64,2.86-3.09,4.8-4.34c1.96-1.27,3.97-2.1,6.02-2.5s4.05-0.39,5.99,0.03c1.94,0.42,3.77,1.24,5.49,2.46
				s3.22,2.83,4.5,4.81c1.25,1.94,2.03,3.83,2.35,5.69c0.31,1.85,0.29,3.63-0.06,5.32l-3.31-0.17c-0.21,0-0.41-0.04-0.62-0.13
				c-0.21-0.08-0.39-0.25-0.56-0.52c-0.18-0.28-0.25-0.63-0.22-1.06c0.03-0.43,0.03-0.95-0.01-1.56s-0.16-1.32-0.38-2.14
				c-0.22-0.82-0.67-1.75-1.35-2.8c-0.79-1.23-1.73-2.22-2.83-2.97s-2.27-1.25-3.55-1.47c-1.27-0.23-2.61-0.18-4.02,0.13
				c-1.41,0.32-2.82,0.94-4.24,1.85c-1.47,0.95-2.64,2-3.52,3.15c-0.88,1.15-1.48,2.34-1.8,3.55c-0.33,1.22-0.38,2.44-0.18,3.67
				c0.21,1.23,0.67,2.4,1.38,3.51c0.43,0.66,0.85,1.24,1.27,1.73c0.42,0.49,0.85,0.91,1.3,1.26c0.45,0.35,0.93,0.65,1.43,0.89
				c0.51,0.24,1.07,0.45,1.69,0.61c0.19,0.05,0.35,0.12,0.51,0.21C290.69,101.65,290.82,101.77,290.92,101.92z"/>
			<path style="fill:#4F4C4A;" d="M296.72,135.68l-2-5.47l12.76-4.67l-5.01-13.69l-12.76,4.67l-2-5.47l29.19-10.69l2,5.47
				l-12.56,4.6l5.01,13.69l12.56-4.6l2,5.47L296.72,135.68z"/>
			<path style="fill:#4F4C4A;" d="M303.87,152.11c0.13,1.11,0.44,2.08,0.91,2.91s1.08,1.51,1.83,2.03c0.74,0.52,1.61,0.89,2.6,1.09
				c0.99,0.21,2.08,0.24,3.26,0.09l18.48-2.23l0.69,5.74l-18.49,2.23c-1.83,0.22-3.57,0.13-5.2-0.27c-1.63-0.4-3.08-1.09-4.34-2.06
				c-1.27-0.97-2.31-2.21-3.13-3.72c-0.82-1.5-1.36-3.24-1.59-5.22c-0.24-1.98-0.14-3.79,0.31-5.45c0.44-1.66,1.16-3.1,2.16-4.34
				c1-1.24,2.24-2.25,3.73-3.03c1.49-0.78,3.15-1.28,4.98-1.5l18.48-2.23l0.69,5.74l-18.46,2.23c-1.18,0.14-2.23,0.43-3.14,0.87
				c-0.92,0.44-1.67,0.99-2.28,1.67c-0.6,0.68-1.04,1.48-1.3,2.4C303.8,149.98,303.73,151,303.87,152.11z"/>
			<path style="fill:#4F4C4A;" d="M312.19,176.92l-12.1-1.11l0.53-5.76l30.96,2.84l-0.86,9.44c-0.19,2.11-0.58,3.9-1.15,5.37
				c-0.57,1.47-1.3,2.65-2.17,3.54c-0.87,0.89-1.88,1.51-3.01,1.86s-2.36,0.46-3.67,0.34c-1.04-0.1-2.01-0.34-2.91-0.73
				c-0.9-0.39-1.7-0.91-2.4-1.56c-0.7-0.65-1.3-1.42-1.8-2.32s-0.86-1.91-1.1-3.03c-0.48,0.69-1.13,1.26-1.95,1.72l-12.14,6.7
				l0.47-5.18c0.05-0.5,0.18-0.92,0.42-1.25c0.23-0.33,0.54-0.6,0.94-0.81l10.51-5.6c0.39-0.21,0.68-0.45,0.87-0.73
				s0.3-0.7,0.35-1.27L312.19,176.92z M316.32,177.3l-0.33,3.6c-0.1,1.08-0.05,2.04,0.15,2.87c0.2,0.83,0.51,1.53,0.94,2.09
				c0.43,0.56,0.96,1.01,1.6,1.32c0.63,0.32,1.34,0.51,2.13,0.58c1.57,0.14,2.82-0.26,3.76-1.22c0.94-0.96,1.5-2.5,1.7-4.63
				l0.34-3.68L316.32,177.3z"/>
			<path style="fill:#4F4C4A;" d="M298.87,218.02c-0.09,0.3-0.28,0.53-0.58,0.68l-3.02,1.48c-1.14-1.66-1.84-3.48-2.11-5.49
				c-0.27-2-0.04-4.24,0.7-6.71c0.66-2.21,1.63-4.09,2.91-5.63c1.28-1.54,2.78-2.73,4.5-3.58c1.72-0.85,3.61-1.33,5.68-1.44
				s4.21,0.17,6.42,0.82c2.24,0.67,4.18,1.65,5.82,2.95c1.64,1.3,2.93,2.82,3.88,4.57c0.94,1.75,1.51,3.67,1.7,5.77
				c0.19,2.1-0.05,4.28-0.73,6.55c-0.66,2.21-1.59,4.04-2.79,5.48s-2.56,2.58-4.08,3.42l-2.02-2.62c-0.13-0.16-0.23-0.34-0.31-0.55
				c-0.07-0.21-0.06-0.46,0.03-0.77c0.09-0.32,0.31-0.6,0.66-0.86c0.35-0.26,0.74-0.6,1.18-1.02c0.44-0.42,0.9-0.99,1.38-1.69
				s0.9-1.65,1.25-2.85c0.42-1.4,0.56-2.76,0.42-4.08c-0.14-1.32-0.53-2.54-1.19-3.65c-0.66-1.12-1.56-2.1-2.72-2.96
				s-2.55-1.53-4.17-2.02c-1.68-0.5-3.24-0.71-4.68-0.62c-1.45,0.08-2.74,0.4-3.87,0.94c-1.13,0.54-2.1,1.29-2.9,2.25
				c-0.8,0.96-1.39,2.07-1.77,3.33c-0.22,0.75-0.39,1.45-0.49,2.09s-0.14,1.24-0.11,1.81c0.02,0.57,0.11,1.13,0.25,1.67
				s0.36,1.1,0.63,1.68c0.08,0.17,0.14,0.35,0.17,0.52S298.92,217.84,298.87,218.02z"/>
			<path style="fill:#4F4C4A;" d="M277,244.36l2.85-5.08l11.85,6.65l7.14-12.71l-11.85-6.65l2.85-5.08l27.11,15.22l-2.85,5.08
				l-11.66-6.55l-7.14,12.71l11.66,6.55l-2.85,5.08L277,244.36z"/>
		</g>
		<path style="fill:#FFFFFF;" d="M156.98,259.16V154.12c0-2.33-1.89-4.22-4.22-4.22H97.14c-2.33,0-4.22-1.89-4.22-4.22v-14.46
			c0-2.33,1.89-4.22,4.22-4.22h55.62c2.33,0,4.22-1.89,4.22-4.22V75.89c0-2.33,1.89-4.22,4.22-4.22h14.84
			c2.33,0,4.22,1.89,4.22,4.22v46.89c0,2.33,1.89,4.22,4.22,4.22h55.62c2.33,0,4.22,1.89,4.22,4.22v14.46
			c0,2.33-1.89,4.22-4.22,4.22h-55.62c-2.33,0-4.22,1.89-4.22,4.22v105.04c0,2.33-1.89,4.22-4.22,4.22H161.2
			C158.87,263.38,156.98,261.49,156.98,259.16z"/>
		<rect x="162.2" y="75.91" style="fill:#7F0D1B;" width="11.67" height="182.11"/>
		
			<rect x="162.2" y="69.53" transform="matrix(-1.836970e-16 1 -1 -1.836970e-16 306.9109 -29.1607)" style="fill:#7F0D1B;" width="11.67" height="138.69"/>
	</g>
</g>
</svg>
